:FULLY-SPECIFIED
:FORCE-ALL-JOINTS-BE-3DOF
:DEGREES
85
root 0.579806 17.4494 8.99354 0.111385 5.24745 3.44826
lfemur -14.1759 -3.7918 -28.02
ltibia 39.0673 -0 0
lfoot -15.0537 -0.540224 0.0253453
ltoes -16.0121 0 0
rfemur -13.0875 -11.9032 15.2828
rtibia 106.263 -0 0
rfoot 24.0791 -6.56659 5.71116e-05
rtoes 26.0185 -0 0
lowerback 17.9458 -0.828276 -5.44824
upperback 3.01867 -2.31929 -2.76338
thorax -6.70456 -1.02543 0.667891
lowerneck -6.84594 -1.05186 -2.14876
upperneck -8.74198 -1.0348 4.69502
head -1.55471 -0.509267 1.84836
lclavicle -3.22031e-14 1.82882e-14 0
lhumerus -24.507 -15.4647 85.292
lradius 106.937 -0 0
lwrist 29.1364 0 0
lhand -36.0525 7.43206 0.00392424
lfingers 7.12502 -0 0
lthumb -9.16047 37.2136 0.00369597
rclavicle -3.22031e-14 1.82882e-14 0
rhumerus -48.2275 6.23501 -85.0005
rradius 79.0896 -0 0
rwrist 1.15896 0 0
rhand -44.6247 38.1399 1.42663e-05
rfingers 7.12502 -0 0
rthumb -17.4225 8.90064 1.34279e-05
86
root 0.584522 17.4507 9.53457 0.0706487 5.20109 3.46406
lfemur -13.8022 -3.66605 -28.0376
ltibia 39.3099 -0 0
lfoot -14.6598 -0.501008 0.0357959
ltoes -15.9382 0 0
rfemur -13.1877 -11.7811 15.3355
rtibia 105.737 -0 0
rfoot 23.8978 -6.56571 -0.000117442
rtoes 26.0635 -0 0
lowerback 17.9357 -0.842714 -5.41883
upperback 3.00449 -2.33091 -2.74221
thorax -6.71535 -1.03124 0.676651
lowerneck -6.89506 -1.02564 -2.13965
upperneck -8.6549 -1.00618 4.62763
head -1.52135 -0.493416 1.82794
lclavicle -3.22031e-14 1.82882e-14 0
lhumerus -24.6171 -15.5815 85.3112
lradius 106.943 -0 0
lwrist 29.0666 0 0
lhand -36.0459 7.39348 0.00550568
lfingers 7.12502 -0 0
lthumb -9.15415 37.1754 0.00518805
rclavicle -3.22031e-14 1.82882e-14 0
rhumerus -48.2365 6.27324 -84.9699
rradius 79.0867 -0 0
rwrist 1.12301 0 0
rhand -44.6227 38.1478 2.22847e-05
rfingers 7.12502 -0 0
rthumb -17.4206 8.90837 2.09735e-05
87
root 0.589238 17.4521 10.0756 0.0319505 5.12128 3.4657
lfemur -13.422 -3.49622 -28.015
ltibia 39.719 -0 0
lfoot -14.1688 -0.465809 0.0447407
ltoes -15.8436 0 0
rfemur -13.3046 -11.6181 15.4268
rtibia 105.035 -0 0
rfoot 23.6212 -6.56445 -0.000414208
rtoes 26.046 -0 0
lowerback 17.9256 -0.858373 -5.36827
upperback 2.98731 -2.33935 -2.70938
thorax -6.72946 -1.03587 0.685171
lowerneck -6.93839 -0.988912 -2.12416
upperneck -8.5742 -0.964922 4.53768
head -1.49071 -0.471306 1.79922
lclavicle -3.22031e-14 1.82882e-14 0
lhumerus -24.7845 -15.7049 85.356
lradius 106.927 -0 0
lwrist 28.9996 0 0
lhand -36.0455 7.36399 0.00683593
lfingers 7.12502 -0 0
lthumb -9.15376 37.1461 0.00644513
rclavicle -3.22031e-14 1.82882e-14 0
rhumerus -48.2124 6.32658 -84.9444
rradius 79.1263 -0 0
rwrist 1.07595 0 0
rhand -44.6205 38.1563 3.07297e-05
rfingers 7.12502 -0 0
rthumb -17.4185 8.91677 2.892e-05
88
root 0.593954 17.4534 10.6166 -0.00474522 5.00964 3.45387
lfemur -13.036 -3.28492 -27.9536
ltibia 40.2863 -0 0
lfoot -13.5859 -0.434462 0.052193
ltoes -15.7293 0 0
rfemur -13.4371 -11.4161 15.5547
rtibia 104.168 -0 0
rfoot 23.2543 -6.56281 -0.00082122
rtoes 25.9691 -0 0
lowerback 17.9154 -0.875176 -5.29763
upperback 2.96729 -2.34473 -2.66547
thorax -6.74672 -1.03936 0.693455
lowerneck -6.97616 -0.942196 -2.10263
upperneck -8.49968 -0.911625 4.42634
head -1.46271 -0.443246 1.76262
lclavicle -3.22031e-14 1.82882e-14 0
lhumerus -25.0065 -15.8344 85.4253
lradius 106.94 -0 0
lwrist 28.9353 0 0
lhand -36.051 7.34315 0.00792121
lfingers 7.12502 -0 0
lthumb -9.15903 37.1251 0.00747291
rclavicle -3.22031e-14 1.82882e-14 0
rhumerus -48.1567 6.39424 -84.9238
rradius 79.2065 -0 0
rwrist 1.01834 0 0
rhand -44.6182 38.1656 3.9477e-05
rfingers 7.12502 -0 0
rthumb -17.4162 8.9258 3.715e-05
89
root 0.59867 17.4548 11.1576 -0.0394546 4.86782 3.42928
lfemur -12.6444 -3.03479 -27.8549
ltibia 41.0035 -0 0
lfoot -12.9161 -0.406808 0.0581881
ltoes -15.5965 0 0
rfemur -13.584 -11.1769 15.717
rtibia 103.143 -0 0
rfoot 22.8017 -6.56083 -0.00132522
rtoes 25.8342 -0 0
lowerback 17.9053 -0.893048 -5.20794
upperback 2.94458 -2.3472 -2.61107
thorax -6.76696 -1.04177 0.701508
lowerneck -7.00859 -0.88602 -2.07536
upperneck -8.43118 -0.846894 4.29476
head -1.43724 -0.409548 1.71855
lclavicle -3.22031e-14 1.82882e-14 0
lhumerus -25.2803 -15.9693 85.5182
lradius 106.932 -0 0
lwrist 28.8738 0 0
lhand -36.062 7.33058 0.00877062
lfingers 7.12502 -0 0
lthumb -9.16967 37.1122 0.00827979
rclavicle -3.22031e-14 1.82882e-14 0
rhumerus -48.071 6.47545 -84.9078
rradius 79.3252 -0 0
rwrist 0.950752 0 0
rhand -44.6156 38.1754 4.84018e-05
rfingers 7.12502 -0 0
rthumb -17.4138 8.93543 4.55464e-05
90
root 0.603386 17.4561 11.6987 -0.0721783 4.69747 3.39262
lfemur -12.2475 -2.7484 -27.7204
ltibia 41.8625 -0 0
lfoot -12.1643 -0.382693 0.0627796
ltoes -15.4462 0 0
rfemur -13.7438 -10.9026 15.9113
rtibia 101.969 -0 0
rfoot 22.2681 -6.55852 -0.00191193
rtoes 25.6485 -0 0
lowerback 17.8951 -0.911912 -5.10025
upperback 2.91934 -2.34687 -2.54676
thorax -6.79001 -1.04314 0.709333
lowerneck -7.03591 -0.820911 -2.04269
upperneck -8.36853 -0.771344 4.14412
head -1.41423 -0.370525 1.66744
lclavicle -3.22031e-14 1.82882e-14 0
lhumerus -25.6034 -16.109 85.6336
lradius 106.915 -0 0
lwrist 28.8148 0 0
lhand -36.0783 7.32586 0.00939572
lfingers 7.12502 -0 0
lthumb -9.1854 37.1068 0.00887646
rclavicle -3.22031e-14 1.82882e-14 0
rhumerus -47.957 6.56945 -84.896
rradius 79.4803 -0 0
rwrist 0.873749 0 0
rhand -44.6129 38.1858 5.73811e-05
rfingers 7.12502 -0 0
rthumb -17.4111 8.94562 5.39935e-05
91
root 0.608102 17.4575 12.2397 -0.102905 4.50023 3.34458
lfemur -11.8457 -2.42836 -27.5516
ltibia 42.8549 -0 0
lfoot -11.3355 -0.361969 0.0660375
ltoes -15.2795 0 0
rfemur -13.9153 -10.5949 16.1356
rtibia 100.656 -0 0
rfoot 21.6584 -6.55589 -0.00256634
rtoes 25.411 -0 0
lowerback 17.8849 -0.931692 -4.9756
upperback 2.89174 -2.3439 -2.47311
thorax -6.81571 -1.04353 0.716935
lowerneck -7.05834 -0.747401 -2.00491
upperneck -8.31158 -0.685598 3.97555
head -1.39357 -0.326492 1.6097
lclavicle -3.22031e-14 1.82882e-14 0
lhumerus -25.973 -16.2527 85.7705
lradius 106.902 -0 0
lwrist 28.7584 0 0
lhand -36.0996 7.32859 0.00981013
lfingers 7.12502 -0 0
lthumb -9.20593 37.1086 0.00927557
rclavicle -3.22031e-14 1.82882e-14 0
rhumerus -47.8162 6.67548 -84.8881
rradius 79.6698 -0 0
rwrist 0.787899 0 0
rhand -44.61 38.1968 6.62942e-05
rfingers 7.12502 -0 0
rthumb -17.4084 8.95632 6.23777e-05
92
root 0.612818 17.4588 12.7807 -0.131614 4.27777 3.28587
lfemur -11.4391 -2.07723 -27.35
ltibia 43.9726 -0 0
lfoot -10.4348 -0.344491 0.0680453
ltoes -15.0973 0 0
rfemur -14.0972 -10.2558 16.3875
rtibia 99.2129 -0 0
rfoot 20.9772 -6.55297 -0.00327296
rtoes 25.1258 -0 0
lowerback 17.8747 -0.952314 -4.83505
upperback 2.86194 -2.33842 -2.39071
thorax -6.84388 -1.04299 0.724318
lowerneck -7.07612 -0.666019 -1.96235
upperneck -8.26016 -0.590284 3.79021
head -1.37518 -0.277763 1.54575
lclavicle -3.22031e-14 1.82882e-14 0
lhumerus -26.3863 -16.3997 85.928
lradius 106.881 -0 0
lwrist 28.7044 0 0
lhand -36.1255 7.33836 0.0100292
lfingers 7.12502 -0 0
lthumb -9.23099 37.1172 0.00949134
rclavicle -3.22031e-14 1.82882e-14 0
rhumerus -47.6502 6.79278 -84.8838
rradius 79.8915 -0 0
rwrist 0.693768 0 0
rhand -44.6069 38.2082 7.50242e-05
rfingers 7.12502 -0 0
rthumb -17.4054 8.9675 7.05892e-05
